<svg width="1600" height="760" viewBox="0 0 1600 760" fill="none" xmlns="http://www.w3.org/2000/svg">
  <defs>
    <filter id="shadow" x="0" y="0" width="1600" height="760" filterUnits="userSpaceOnUse" color-interpolation-filters="sRGB">
      <feDropShadow dx="0" dy="22" stdDeviation="28" flood-color="#ADC0E5" flood-opacity="0.18"/>
    </filter>
    <linearGradient id="blue" x1="0" y1="0" x2="1" y2="1">
      <stop stop-color="#4D8DFF"/>
      <stop offset="1" stop-color="#1E62F2"/>
    </linearGradient>
  </defs>
  <rect width="1600" height="760" rx="32" fill="#F8FAFE"/>
  <text x="110" y="116" fill="#0F172A" font-family="SF Pro Display, Inter, Arial, sans-serif" font-size="54" font-weight="800">Designed for bilingual teams and local-first setups</text>
  <text x="110" y="162" fill="#64748B" font-family="SF Pro Text, Inter, Arial, sans-serif" font-size="28" font-weight="500">Use GitHub-friendly visuals up front, then let the README flow into real screenshots, install steps, and architecture.</text>

  <g filter="url(#shadow)">
    <rect x="110" y="232" width="648" height="420" rx="30" fill="#FFFFFF"/>
    <rect x="150" y="272" width="568" height="58" rx="20" fill="#EEF3FB"/>
    <rect x="168" y="286" width="158" height="30" rx="15" fill="url(#blue)"/>
    <text x="214" y="308" fill="white" font-family="SF Pro Display, Inter, Arial, sans-serif" font-size="20" font-weight="800">English</text>
    <text x="150" y="390" fill="#111827" font-family="Georgia, Times New Roman, serif" font-size="68" font-style="italic" font-weight="700">Codex</text>
    <text x="150" y="440" fill="#667085" font-family="SF Pro Text, Inter, Arial, sans-serif" font-size="24" font-weight="600">Updated moments ago</text>
    <text x="150" y="504" fill="#111827" font-family="SF Pro Display, Inter, Arial, sans-serif" font-size="34" font-weight="800">Session Window</text>
    <rect x="150" y="530" width="480" height="18" rx="9" fill="#E5EAF3"/>
    <rect x="150" y="530" width="300" height="18" rx="9" fill="url(#blue)"/>
    <text x="150" y="592" fill="#111827" font-family="SF Pro Display, Inter, Arial, sans-serif" font-size="50" font-weight="800">82% left</text>

    <rect x="842" y="232" width="648" height="420" rx="30" fill="#FFFFFF"/>
    <rect x="882" y="272" width="568" height="58" rx="20" fill="#EEF3FB"/>
    <rect x="900" y="286" width="158" height="30" rx="15" fill="#E9F2FF"/>
    <text x="950" y="308" fill="#2563EB" font-family="SF Pro Display, Inter, Arial, sans-serif" font-size="20" font-weight="800">中文</text>
    <text x="882" y="390" fill="#111827" font-family="Georgia, Times New Roman, serif" font-size="68" font-style="italic" font-weight="700">Codex</text>
    <text x="882" y="440" fill="#667085" font-family="SF Pro Text, Inter, Arial, sans-serif" font-size="24" font-weight="600">更新于几秒前</text>
    <text x="882" y="504" fill="#111827" font-family="SF Pro Display, Inter, Arial, sans-serif" font-size="34" font-weight="800">会话额度</text>
    <rect x="882" y="530" width="480" height="18" rx="9" fill="#E5EAF3"/>
    <rect x="882" y="530" width="332" height="18" rx="9" fill="url(#blue)"/>
    <text x="882" y="592" fill="#111827" font-family="SF Pro Display, Inter, Arial, sans-serif" font-size="50" font-weight="800">剩余 82%</text>
  </g>
</svg>
